<svg width="24" height="24" viewBox="0 0 24 24" fill="none" xmlns="http://www.w3.org/2000/svg">
  <path d="M16 15C15.4477 15 15 15.4477 15 16V16.002C15 16.5543 15.4477 17.002 16 17.002H16.002C16.5543 17.002 17.002 16.5543 17.002 16.002V16C17.002 15.4477 16.5543 15 16.002 15H16Z" fill="#CDD1D5"/>
  <path d="M11 16C11 15.4477 11.4477 15 12 15H12.002C12.5543 15 13.002 15.4477 13.002 16V16.002C13.002 16.5543 12.5543 17.002 12.002 17.002H12C11.4477 17.002 11 16.5543 11 16.002V16Z" fill="#CDD1D5"/>
  <path d="M8 15C7.44772 15 7 15.4477 7 16V16.002C7 16.5543 7.44772 17.002 8 17.002H8.002C8.55428 17.002 9.002 16.5543 9.002 16.002V16C9.002 15.4477 8.55428 15 8.002 15H8Z" fill="#CDD1D5"/>
  <path d="M15 12C15 11.4477 15.4477 11 16 11H16.002C16.5543 11 17.002 11.4477 17.002 12V12.002C17.002 12.5543 16.5543 13.002 16.002 13.002H16C15.4477 13.002 15 12.5543 15 12.002V12Z" fill="#CDD1D5"/>
  <path d="M12 11C11.4477 11 11 11.4477 11 12V12.002C11 12.5543 11.4477 13.002 12 13.002H12.002C12.5543 13.002 13.002 12.5543 13.002 12.002V12C13.002 11.4477 12.5543 11 12.002 11H12Z" fill="#CDD1D5"/>
  <path d="M7 12C7 11.4477 7.44772 11 8 11H8.002C8.55428 11 9.002 11.4477 9.002 12V12.002C9.002 12.5543 8.55428 13.002 8.002 13.002H8C7.44772 13.002 7 12.5543 7 12.002V12Z" fill="#CDD1D5"/>
  <path fill-rule="evenodd" clip-rule="evenodd" d="M16 1C16.5523 1 17 1.44772 17 2V3H19C20.1046 3 21 3.89543 21 5V19C21 20.1046 20.1046 21 19 21H5C3.89543 21 3 20.1046 3 19V5C3 3.89543 3.89543 3 5 3H7V2C7 1.44772 7.44772 1 8 1C8.55228 1 9 1.44772 9 2V3H15V2C15 1.44772 15.4477 1 16 1ZM5 5V7H19V5H5ZM5 9H19V19H5V9Z" fill="#CDD1D5"/>
</svg>
