<svg width="24" height="24" viewBox="0 0 24 24" fill="none" xmlns="http://www.w3.org/2000/svg">
  <path d="M18.677 19.6067L12.962 13.8907C10.4196 15.6981 6.91642 15.256 4.90285 12.8736C2.88929 10.4912 3.03714 6.96324 5.24298 4.75765C7.44824 2.5511 10.9765 2.40261 13.3594 4.41607C15.7422 6.42953 16.1846 9.9331 14.377 12.4757L20.092 18.1917L18.678 19.6057L18.677 19.6067ZM9.48498 4.99964C7.58868 4.99921 5.95267 6.33033 5.56745 8.18709C5.18224 10.0438 6.15369 11.9159 7.89366 12.6699C9.63362 13.4239 11.6639 12.8525 12.7552 11.3017C13.8466 9.75093 13.699 7.64697 12.402 6.26365L13.007 6.86365L12.325 6.18365L12.313 6.17165C11.5648 5.41883 10.5464 4.99678 9.48498 4.99964Z" fill="#2E3A59"/>
</svg>
