<svg width="48" height="53" viewBox="0 0 48 53" fill="none" xmlns="http://www.w3.org/2000/svg">
<path d="M0 15.5721V37.433C0.000248105 38.2479 0.214916 39.0485 0.622446 39.7542C1.02998 40.46 1.61602 41.0461 2.32173 41.4537L21.253 52.3787C21.9588 52.7857 22.7593 53 23.574 53C24.3888 53 25.1893 52.7857 25.8951 52.3787L44.8277 41.4537C45.5331 41.0458 46.1188 40.4596 46.5261 39.7539C46.9333 39.0482 47.1478 38.2478 47.1481 37.433V15.5721C47.148 14.7575 46.9336 13.9572 46.5263 13.2517C46.119 12.5461 45.5332 11.9602 44.8277 11.5528L25.8951 0.622345C25.1895 0.214649 24.389 0 23.574 0C22.7591 0 21.9586 0.214649 21.253 0.622345L2.32173 11.5528C1.61594 11.9599 1.0298 12.5458 0.62224 13.2513C0.21468 13.9569 7.42125e-05 14.7573 0 15.5721Z" fill="url(#paint0_linear_498_6490)"/>
<path d="M23.3258 19.743L21.4007 21.1401L18.329 23.3725L17.6196 23.887C17.563 23.9237 17.5195 23.9774 17.4952 24.0404C17.4709 24.1033 17.467 24.1723 17.4842 24.2376L18.2193 26.4998L19.3917 30.1103L19.6624 30.9442C19.6814 31.0089 19.7205 31.0658 19.7741 31.1067C19.8277 31.1476 19.8929 31.1703 19.9603 31.1716H27.0135C27.081 31.1704 27.1464 31.1477 27.2002 31.1068C27.254 31.0659 27.2934 31.009 27.3126 30.9442L28.0423 28.6875L29.2161 25.0715L29.4868 24.2376C29.5038 24.1716 29.4991 24.102 29.4735 24.0388C29.4479 23.9757 29.4028 23.9225 29.3447 23.887L27.4196 22.4899L24.3424 20.2575L23.6331 19.743C23.5618 19.7019 23.4773 19.6905 23.3977 19.7113C23.3182 19.7321 23.25 19.7834 23.208 19.854C23.1685 19.9255 23.1581 20.0095 23.179 20.0885C23.2 20.1674 23.2506 20.2353 23.3203 20.2778L25.2441 21.6762L28.3158 23.9073L29.0252 24.4231L28.883 24.0724L28.1479 26.3359L26.9742 29.9451L26.7034 30.7804L27.0026 30.553H19.9494L20.2486 30.7804L19.5135 28.5169L18.3411 24.9064L18.0704 24.0724L17.9269 24.4231L19.852 23.0246L22.9237 20.7936L23.6331 20.2778C23.7023 20.2348 23.7525 20.1669 23.7731 20.0881C23.7938 20.0092 23.7834 19.9255 23.7441 19.854C23.7026 19.7846 23.6356 19.7342 23.5575 19.7135C23.4793 19.6927 23.3962 19.7033 23.3258 19.743Z" fill="url(#paint1_linear_498_6490)"/>
<path d="M23.7346 18.2246V12.2964C23.7346 12.0798 23.4639 11.8902 23.2676 12.0256L23.5072 11.9945L19.3105 11.3501L17.0673 11.0049C16.9129 10.9819 16.672 10.9115 16.5339 10.9927C16.4063 11.0762 16.2834 11.1666 16.1656 11.2634L12.0041 14.3203L11.3733 14.7833C11.3117 14.8175 11.2574 14.8636 11.2138 14.9189C11.1701 14.9742 11.1378 15.0376 11.1188 15.1055C11.005 15.7052 10.9238 16.313 10.8277 16.9141L10.0628 21.6524L10.0466 21.7539L10.1819 21.5684C10.1311 21.6003 10.0904 21.6461 10.0648 21.7004C10.0391 21.7547 10.0296 21.8152 10.0373 21.8748C10.045 21.9343 10.0696 21.9904 10.1082 22.0364C10.1468 22.0824 10.1977 22.1164 10.255 22.1343L10.0384 21.7525C10.0235 21.8118 10.026 21.8742 10.0457 21.9321C10.0654 21.99 10.1014 22.0409 10.1494 22.0788C10.1978 22.1168 10.2563 22.1394 10.3176 22.1437C10.3789 22.1481 10.4401 22.1339 10.4933 22.1032L10.255 22.1357L12.1503 22.753L15.1842 23.7385L15.8854 23.966C16.2658 24.0892 16.4269 23.4908 16.0492 23.3689L14.1025 22.7354L11.0511 21.7444L10.5637 21.586C10.4392 21.5454 10.2929 21.4818 10.1738 21.5698L10.6287 21.9204C10.6485 21.8413 10.637 21.7576 10.5967 21.6868C10.5563 21.6159 10.4902 21.5633 10.4121 21.54L10.4865 22.1072C10.7031 21.9502 10.6882 21.5549 10.7275 21.3153L10.9834 19.7273L11.5736 16.064L11.709 15.2084L11.5669 15.3925L13.3417 14.0888L16.1751 12.0067L16.8304 11.5247L16.5921 11.5572L18.9192 11.9146L22.5528 12.4724L23.1349 12.5617C23.2608 12.582 23.4558 12.6348 23.5613 12.5617L23.0956 12.291V18.2192C23.0956 18.6253 23.7157 18.6253 23.7157 18.2192L23.7346 18.2246Z" fill="url(#paint2_linear_498_6490)"/>
<path d="M16.0625 23.378L14.1673 22.7593L11.1334 21.7737L10.4322 21.5463C10.3794 21.5321 10.3239 21.5321 10.2712 21.5462C10.2184 21.5602 10.1703 21.5879 10.1316 21.6265C10.0929 21.665 10.0651 21.713 10.0508 21.7657C10.0366 21.8184 10.0364 21.8739 10.0504 21.9267L10.0815 21.6884L8.17271 25.479L7.15196 27.5097C7.0775 27.6586 6.94754 27.8454 6.98816 28.016C7.02335 28.1622 7.08427 28.3071 7.13166 28.4492L8.75619 33.3526L9.00123 34.0945C9.01623 34.1635 9.04509 34.2287 9.08604 34.2861C9.127 34.3436 9.17921 34.3922 9.23949 34.4289C9.781 34.7199 10.3225 34.9866 10.864 35.2655L15.1366 37.4532L15.2273 37.5006L15.0851 37.3151C15.1027 37.3729 15.1365 37.4243 15.1825 37.4634C15.2286 37.5024 15.2849 37.5273 15.3447 37.5352C15.4046 37.543 15.4654 37.5335 15.52 37.5077C15.5745 37.4818 15.6205 37.4408 15.6523 37.3896L15.2286 37.5006C15.4547 37.6157 15.7701 37.4221 15.6835 37.15L15.6523 37.3896L16.8274 35.7732L18.7011 33.1929L19.1343 32.5959C19.1757 32.5249 19.1872 32.4405 19.1664 32.361C19.1456 32.2816 19.0941 32.2136 19.0233 32.1721C18.952 32.1321 18.868 32.1214 18.789 32.1421C18.7099 32.1628 18.642 32.2134 18.5995 32.2831L17.396 33.9388L15.5102 36.5394L15.2083 36.9455C15.1284 37.0566 15.0364 37.1594 15.0865 37.3138L15.5413 36.9631C15.47 36.9235 15.3861 36.9129 15.3072 36.9336C15.2283 36.9543 15.1603 37.0046 15.1176 37.0742L15.6848 37.1486C15.6375 37.0011 15.5346 36.9591 15.4141 36.8968L14.9944 36.6816L13.5621 35.9478L10.2629 34.2569L9.49129 33.8616L9.63344 34.0471L8.94166 31.9555L7.83833 28.6171L7.58247 27.8441L7.55133 28.0837L8.60728 25.9799L10.2629 22.697L10.5337 22.1717C10.5946 22.0499 10.6935 21.901 10.6488 21.7656L10.2629 22.1433L12.1582 22.7606L15.1934 23.7476L15.8947 23.975C16.2751 24.0982 16.4362 23.4998 16.0598 23.378H16.0625Z" fill="url(#paint3_linear_498_6490)"/>
<path d="M31.0598 23.9409L32.9619 23.3222L35.9957 22.3367L36.6983 22.1092L36.3166 21.7275C36.2733 21.8628 36.3545 21.9833 36.4113 22.097L36.6239 22.5194L37.3482 23.9571L39.0187 27.2739L39.41 28.0496L39.3788 27.81L38.6925 29.9057L37.5878 33.2427L37.3319 34.0157L37.4673 33.8303L35.3757 34.9038L32.1077 36.5811L31.5838 36.8519C31.4484 36.9196 31.3265 36.9643 31.2737 37.1227L31.841 37.0495C31.798 36.9803 31.7302 36.9301 31.6514 36.9092C31.5727 36.8883 31.4889 36.8983 31.4172 36.9372L31.8735 37.2878C31.9452 37.0658 31.6515 36.7842 31.5364 36.6258L30.7146 35.4941L28.8099 32.8623L28.3618 32.2463C28.3184 32.1776 28.2505 32.1279 28.1718 32.1073C28.0931 32.0867 28.0096 32.0967 27.938 32.1353C27.8674 32.1774 27.8161 32.2455 27.7953 32.3251C27.7745 32.4046 27.7859 32.4892 27.827 32.5604L29.0021 34.1768L30.8757 36.7571L31.3103 37.3541L31.2792 37.1145C31.1898 37.3853 31.508 37.5802 31.734 37.4638L31.3089 37.3528C31.3409 37.4036 31.3869 37.4443 31.4412 37.4698C31.4956 37.4953 31.5562 37.5048 31.6157 37.4969C31.6753 37.4891 31.7314 37.4643 31.7773 37.4256C31.8232 37.3868 31.8571 37.3357 31.8748 37.2783L31.7327 37.4638L35.503 35.5293L37.5201 34.495C37.6812 34.4124 37.8585 34.3596 37.9262 34.1728C37.979 34.0293 38.0223 33.8831 38.0697 33.7382L39.6943 28.8348L39.9406 28.0929C39.9672 28.0262 39.9791 27.9546 39.9756 27.8829C39.9721 27.8112 39.9532 27.7411 39.9203 27.6773C39.6496 27.129 39.3707 26.5862 39.0959 26.0393L36.9298 21.7464L36.8838 21.6544L36.9149 21.8926C36.9291 21.8399 36.9292 21.7844 36.9151 21.7316C36.901 21.6789 36.8733 21.6308 36.8348 21.5921C36.7963 21.5534 36.7482 21.5255 36.6955 21.5113C36.6428 21.497 36.5873 21.4969 36.5345 21.5109L34.6311 22.1295L31.5973 23.1151L30.896 23.3425C30.5183 23.4657 30.6794 24.0641 31.0598 23.9409Z" fill="url(#paint4_linear_498_6490)"/>
<path d="M18.601 32.2832L17.426 33.901L15.5496 36.4826L15.1164 37.0796C14.9743 37.2746 15.1665 37.5467 15.3872 37.5453L15.1679 37.4546L18.1814 40.4397L19.7937 42.0385C19.9156 42.159 20.0401 42.3269 20.2256 42.3377C20.3759 42.3458 20.5302 42.3377 20.6818 42.3377L25.8465 42.3106H26.629C26.6998 42.3165 26.7711 42.3076 26.8382 42.2842C26.9054 42.2609 26.9669 42.2238 27.0189 42.1753C27.4575 41.7515 27.8853 41.3143 28.3171 40.8838L31.7232 37.4993L31.7963 37.4276L31.577 37.5183C31.8722 37.5183 31.9534 37.1893 31.7963 36.9889V37.4262C31.8385 37.3824 31.8669 37.3272 31.8782 37.2675C31.8894 37.2077 31.883 37.146 31.8597 37.0898C31.8365 37.0337 31.7973 36.9855 31.7471 36.9512C31.6969 36.917 31.6378 36.8981 31.577 36.8969L31.8478 37.0512L30.6727 35.4334L28.7991 32.8545L28.3659 32.2575C28.3226 32.1881 28.2545 32.1379 28.1754 32.1173C28.0964 32.0967 28.0124 32.1071 27.9408 32.1465C27.8705 32.1885 27.8194 32.2564 27.7987 32.3356C27.7779 32.4149 27.7891 32.4991 27.8298 32.5702L29.0482 34.2394L30.9435 36.84L31.2345 37.2461C31.3266 37.3734 31.4146 37.5169 31.5933 37.5169L31.374 36.9876C31.3184 37.0468 31.2874 37.125 31.2874 37.2062C31.2874 37.2874 31.3184 37.3656 31.374 37.4248L31.5919 36.8955C31.4471 36.8955 31.3631 36.9943 31.2711 37.0864L30.9367 37.4194L29.7968 38.5539L27.1664 41.1694L26.5504 41.7813L26.7698 41.6906L24.5672 41.7028L21.0473 41.7204H20.2351L20.4544 41.8111L18.7825 40.1541L16.1697 37.5656L15.7527 37.1514C15.6512 37.0512 15.5537 36.928 15.3967 36.928L15.6674 37.3951L16.8425 35.7773L18.7175 33.1956L19.1507 32.5986C19.1917 32.5276 19.2031 32.4433 19.1823 32.3639C19.1615 32.2846 19.1103 32.2167 19.0397 32.1749C18.9683 32.1353 18.8845 32.1247 18.8055 32.1454C18.7266 32.166 18.6587 32.2164 18.6159 32.2859L18.601 32.2832Z" fill="url(#paint5_linear_498_6490)"/>
<path d="M23.7345 18.2247V12.2965L23.2675 12.5672C23.369 12.6417 23.5314 12.597 23.6506 12.5794L24.1176 12.5063L25.7083 12.2626L29.3798 11.6981L30.2381 11.5627L29.9984 11.5302L31.7733 12.8353L34.6067 14.9161L35.2633 15.398L35.1212 15.2139L35.4948 17.5356L36.0796 21.161L36.173 21.7418C36.1974 21.8975 36.1988 22.0058 36.3463 22.1127L36.4194 21.5455C36.3415 21.5691 36.2756 21.6218 36.2353 21.6925C36.195 21.7633 36.1834 21.8468 36.2028 21.9259L36.6618 21.5807C36.4858 21.4521 36.0972 21.6525 35.9253 21.7093L34.5959 22.1412L31.5093 23.1443L30.785 23.3799C30.4073 23.5017 30.5684 24.1014 30.9502 23.9769L32.8454 23.3596L35.8779 22.374L36.5792 22.1466L36.3409 22.1141C36.3942 22.1445 36.4553 22.1585 36.5165 22.1541C36.5778 22.1498 36.6363 22.1274 36.6848 22.0897C36.7321 22.0513 36.7677 22.0003 36.7873 21.9426C36.807 21.8849 36.8099 21.8228 36.7958 21.7635L36.5792 22.1452C36.6366 22.1275 36.6877 22.0936 36.7264 22.0477C36.7652 22.0018 36.7899 21.9457 36.7978 21.8862C36.8056 21.8266 36.7962 21.766 36.7706 21.7116C36.7451 21.6573 36.7045 21.6114 36.6536 21.5794L36.7971 21.7648L36.1202 17.5871L35.7601 15.3493C35.7304 15.1611 35.7358 14.9959 35.5693 14.87C35.4474 14.778 35.3229 14.69 35.201 14.5993L31.0436 11.5357L30.4141 11.0727C30.3802 11.0483 30.3477 11.0185 30.3125 10.9969C30.2178 10.9533 30.1106 10.9456 30.0106 10.9752L28.1979 11.2541L23.4462 11.9838L23.3446 12L23.5829 12.0311C23.3879 11.8876 23.1172 12.0812 23.1172 12.3019V18.2301C23.1172 18.6362 23.7372 18.6362 23.7372 18.2301L23.7345 18.2247Z" fill="url(#paint6_linear_498_6490)"/>
<path d="M16.814 12.4595C17.4959 12.4595 18.0486 11.9068 18.0486 11.2249C18.0486 10.543 17.4959 9.99023 16.814 9.99023C16.1321 9.99023 15.5793 10.543 15.5793 11.2249C15.5793 11.9068 16.1321 12.4595 16.814 12.4595Z" fill="url(#paint7_linear_498_6490)"/>
<path d="M11.4787 16.0419C12.0245 16.0419 12.467 15.5995 12.467 15.0537C12.467 14.5079 12.0245 14.0654 11.4787 14.0654C10.9329 14.0654 10.4905 14.5079 10.4905 15.0537C10.4905 15.5995 10.9329 16.0419 11.4787 16.0419Z" fill="url(#paint8_linear_498_6490)"/>
<path d="M23.4812 13.2573C24.027 13.2573 24.4694 12.8148 24.4694 12.269C24.4694 11.7232 24.027 11.2808 23.4812 11.2808C22.9354 11.2808 22.4929 11.7232 22.4929 12.269C22.4929 12.8148 22.9354 13.2573 23.4812 13.2573Z" fill="url(#paint9_linear_498_6490)"/>
<path d="M30.02 12.2133C30.5658 12.2133 31.0083 11.7709 31.0083 11.2251C31.0083 10.6793 30.5658 10.2368 30.02 10.2368C29.4742 10.2368 29.0317 10.6793 29.0317 11.2251C29.0317 11.7709 29.4742 12.2133 30.02 12.2133Z" fill="url(#paint10_linear_498_6490)"/>
<path d="M35.4675 16.0419C36.0133 16.0419 36.4558 15.5995 36.4558 15.0537C36.4558 14.5079 36.0133 14.0654 35.4675 14.0654C34.9217 14.0654 34.4792 14.5079 34.4792 15.0537C34.4792 15.5995 34.9217 16.0419 35.4675 16.0419Z" fill="url(#paint11_linear_498_6490)"/>
<path d="M36.5588 22.8134C37.1046 22.8134 37.5471 22.371 37.5471 21.8252C37.5471 21.2794 37.1046 20.8369 36.5588 20.8369C36.013 20.8369 35.5706 21.2794 35.5706 21.8252C35.5706 22.371 36.013 22.8134 36.5588 22.8134Z" fill="url(#paint12_linear_498_6490)"/>
<path d="M10.4038 22.8134C10.9496 22.8134 11.392 22.371 11.392 21.8252C11.392 21.2794 10.9496 20.8369 10.4038 20.8369C9.85799 20.8369 9.41553 21.2794 9.41553 21.8252C9.41553 22.371 9.85799 22.8134 10.4038 22.8134Z" fill="url(#paint13_linear_498_6490)"/>
<path d="M39.7795 29.0258C40.3253 29.0258 40.7678 28.5834 40.7678 28.0376C40.7678 27.4918 40.3253 27.0493 39.7795 27.0493C39.2337 27.0493 38.7913 27.4918 38.7913 28.0376C38.7913 28.5834 39.2337 29.0258 39.7795 29.0258Z" fill="url(#paint14_linear_498_6490)"/>
<path d="M7.3701 29.0258C7.9159 29.0258 8.35836 28.5834 8.35836 28.0376C8.35836 27.4918 7.9159 27.0493 7.3701 27.0493C6.8243 27.0493 6.38184 27.4918 6.38184 28.0376C6.38184 28.5834 6.8243 29.0258 7.3701 29.0258Z" fill="url(#paint15_linear_498_6490)"/>
<path d="M37.7163 35.1601C38.2621 35.1601 38.7046 34.7177 38.7046 34.1719C38.7046 33.6261 38.2621 33.1836 37.7163 33.1836C37.1705 33.1836 36.728 33.6261 36.728 34.1719C36.728 34.7177 37.1705 35.1601 37.7163 35.1601Z" fill="url(#paint16_linear_498_6490)"/>
<path d="M9.46824 35.1601C10.014 35.1601 10.4565 34.7177 10.4565 34.1719C10.4565 33.6261 10.014 33.1836 9.46824 33.1836C8.92244 33.1836 8.47998 33.6261 8.47998 34.1719C8.47998 34.7177 8.92244 35.1601 9.46824 35.1601Z" fill="url(#paint17_linear_498_6490)"/>
<path d="M23.4812 19.1733C24.027 19.1733 24.4694 18.7308 24.4694 18.185C24.4694 17.6392 24.027 17.1968 23.4812 17.1968C22.9354 17.1968 22.4929 17.6392 22.4929 18.185C22.4929 18.7308 22.9354 19.1733 23.4812 19.1733Z" fill="url(#paint18_linear_498_6490)"/>
<path d="M30.9219 24.6279C31.4677 24.6279 31.9101 24.1854 31.9101 23.6396C31.9101 23.0938 31.4677 22.6514 30.9219 22.6514C30.3761 22.6514 29.9336 23.0938 29.9336 23.6396C29.9336 24.1854 30.3761 24.6279 30.9219 24.6279Z" fill="url(#paint19_linear_498_6490)"/>
<path d="M28.1926 33.3271C28.7384 33.3271 29.1809 32.8846 29.1809 32.3388C29.1809 31.793 28.7384 31.3506 28.1926 31.3506C27.6468 31.3506 27.2043 31.793 27.2043 32.3388C27.2043 32.8846 27.6468 33.3271 28.1926 33.3271Z" fill="url(#paint20_linear_498_6490)"/>
<path d="M31.5027 38.2031C32.0485 38.2031 32.4909 37.7606 32.4909 37.2148C32.4909 36.669 32.0485 36.2266 31.5027 36.2266C30.9569 36.2266 30.5144 36.669 30.5144 37.2148C30.5144 37.7606 30.9569 38.2031 31.5027 38.2031Z" fill="url(#paint21_linear_498_6490)"/>
<path d="M26.7099 43.0156C27.2557 43.0156 27.6982 42.5731 27.6982 42.0273C27.6982 41.4815 27.2557 41.0391 26.7099 41.0391C26.1641 41.0391 25.7217 41.4815 25.7217 42.0273C25.7217 42.5731 26.1641 43.0156 26.7099 43.0156Z" fill="url(#paint22_linear_498_6490)"/>
<path d="M20.4382 43.0156C20.984 43.0156 21.4265 42.5731 21.4265 42.0273C21.4265 41.4815 20.984 41.0391 20.4382 41.0391C19.8924 41.0391 19.45 41.4815 19.45 42.0273C19.45 42.5731 19.8924 43.0156 20.4382 43.0156Z" fill="url(#paint23_linear_498_6490)"/>
<path d="M18.9555 33.3271C19.5013 33.3271 19.9438 32.8846 19.9438 32.3388C19.9438 31.793 19.5013 31.3506 18.9555 31.3506C18.4097 31.3506 17.9673 31.793 17.9673 32.3388C17.9673 32.8846 18.4097 33.3271 18.9555 33.3271Z" fill="url(#paint24_linear_498_6490)"/>
<path d="M15.3845 38.2031C15.9303 38.2031 16.3728 37.7606 16.3728 37.2148C16.3728 36.669 15.9303 36.2266 15.3845 36.2266C14.8387 36.2266 14.3962 36.669 14.3962 37.2148C14.3962 37.7606 14.8387 38.2031 15.3845 38.2031Z" fill="url(#paint25_linear_498_6490)"/>
<path d="M16.041 24.6279C16.5868 24.6279 17.0293 24.1854 17.0293 23.6396C17.0293 23.0938 16.5868 22.6514 16.041 22.6514C15.4952 22.6514 15.0527 23.0938 15.0527 23.6396C15.0527 24.1854 15.4952 24.6279 16.041 24.6279Z" fill="url(#paint26_linear_498_6490)"/>
<defs>
<linearGradient id="paint0_linear_498_6490" x1="35.1089" y1="12.5559" x2="11.3542" y2="41.2777" gradientUnits="userSpaceOnUse">
<stop stop-color="#CE2836"/>
<stop offset="1" stop-color="#8F1010"/>
</linearGradient>
<linearGradient id="paint1_linear_498_6490" x1="17.7035" y1="25.4343" x2="29.2594" y2="25.4343" gradientUnits="userSpaceOnUse">
<stop stop-color="white"/>
<stop offset="1" stop-color="white"/>
</linearGradient>
<linearGradient id="paint2_linear_498_6490" x1="10.2618" y1="17.4773" x2="23.4869" y2="17.4773" gradientUnits="userSpaceOnUse">
<stop stop-color="white"/>
<stop offset="1" stop-color="white"/>
</linearGradient>
<linearGradient id="paint3_linear_498_6490" x1="7.21424" y1="29.535" x2="18.9298" y2="29.535" gradientUnits="userSpaceOnUse">
<stop stop-color="white"/>
<stop offset="1" stop-color="white"/>
</linearGradient>
<linearGradient id="paint4_linear_498_6490" x1="28.0287" y1="29.4995" x2="39.7443" y2="29.4995" gradientUnits="userSpaceOnUse">
<stop stop-color="white"/>
<stop offset="1" stop-color="white"/>
</linearGradient>
<linearGradient id="paint5_linear_498_6490" x1="15.2626" y1="37.2164" x2="31.7287" y2="37.2164" gradientUnits="userSpaceOnUse">
<stop stop-color="white"/>
<stop offset="1" stop-color="white"/>
</linearGradient>
<linearGradient id="paint6_linear_498_6490" x1="23.3622" y1="17.4761" x2="36.5873" y2="17.4761" gradientUnits="userSpaceOnUse">
<stop stop-color="white"/>
<stop offset="1" stop-color="white"/>
</linearGradient>
<linearGradient id="paint7_linear_498_6490" x1="15.578" y1="11.2249" x2="18.0486" y2="11.2249" gradientUnits="userSpaceOnUse">
<stop stop-color="white"/>
<stop offset="1" stop-color="white"/>
</linearGradient>
<linearGradient id="paint8_linear_498_6490" x1="10.4905" y1="15.0537" x2="12.467" y2="15.0537" gradientUnits="userSpaceOnUse">
<stop stop-color="white"/>
<stop offset="1" stop-color="white"/>
</linearGradient>
<linearGradient id="paint9_linear_498_6490" x1="22.4929" y1="12.269" x2="24.4694" y2="12.269" gradientUnits="userSpaceOnUse">
<stop stop-color="white"/>
<stop offset="1" stop-color="white"/>
</linearGradient>
<linearGradient id="paint10_linear_498_6490" x1="29.0317" y1="11.2251" x2="31.0083" y2="11.2251" gradientUnits="userSpaceOnUse">
<stop stop-color="white"/>
<stop offset="1" stop-color="white"/>
</linearGradient>
<linearGradient id="paint11_linear_498_6490" x1="34.4792" y1="15.0537" x2="36.4558" y2="15.0537" gradientUnits="userSpaceOnUse">
<stop stop-color="white"/>
<stop offset="1" stop-color="white"/>
</linearGradient>
<linearGradient id="paint12_linear_498_6490" x1="35.5719" y1="21.8252" x2="37.5471" y2="21.8252" gradientUnits="userSpaceOnUse">
<stop stop-color="white"/>
<stop offset="1" stop-color="white"/>
</linearGradient>
<linearGradient id="paint13_linear_498_6490" x1="9.41553" y1="21.8252" x2="11.392" y2="21.8252" gradientUnits="userSpaceOnUse">
<stop stop-color="white"/>
<stop offset="1" stop-color="white"/>
</linearGradient>
<linearGradient id="paint14_linear_498_6490" x1="38.7913" y1="28.0376" x2="40.7664" y2="28.0376" gradientUnits="userSpaceOnUse">
<stop stop-color="white"/>
<stop offset="1" stop-color="white"/>
</linearGradient>
<linearGradient id="paint15_linear_498_6490" x1="6.38184" y1="28.0376" x2="8.357" y2="28.0376" gradientUnits="userSpaceOnUse">
<stop stop-color="white"/>
<stop offset="1" stop-color="white"/>
</linearGradient>
<linearGradient id="paint16_linear_498_6490" x1="36.7294" y1="34.1719" x2="38.7046" y2="34.1719" gradientUnits="userSpaceOnUse">
<stop stop-color="white"/>
<stop offset="1" stop-color="white"/>
</linearGradient>
<linearGradient id="paint17_linear_498_6490" x1="8.47998" y1="34.1719" x2="10.4565" y2="34.1719" gradientUnits="userSpaceOnUse">
<stop stop-color="white"/>
<stop offset="1" stop-color="white"/>
</linearGradient>
<linearGradient id="paint18_linear_498_6490" x1="22.4929" y1="18.185" x2="24.4694" y2="18.185" gradientUnits="userSpaceOnUse">
<stop stop-color="white"/>
<stop offset="1" stop-color="white"/>
</linearGradient>
<linearGradient id="paint19_linear_498_6490" x1="29.9336" y1="23.6396" x2="31.9101" y2="23.6396" gradientUnits="userSpaceOnUse">
<stop stop-color="white"/>
<stop offset="1" stop-color="white"/>
</linearGradient>
<linearGradient id="paint20_linear_498_6490" x1="27.2043" y1="32.3388" x2="29.1809" y2="32.3388" gradientUnits="userSpaceOnUse">
<stop stop-color="white"/>
<stop offset="1" stop-color="white"/>
</linearGradient>
<linearGradient id="paint21_linear_498_6490" x1="30.5144" y1="37.2148" x2="32.4909" y2="37.2148" gradientUnits="userSpaceOnUse">
<stop stop-color="white"/>
<stop offset="1" stop-color="white"/>
</linearGradient>
<linearGradient id="paint22_linear_498_6490" x1="25.7217" y1="42.0273" x2="27.6982" y2="42.0273" gradientUnits="userSpaceOnUse">
<stop stop-color="white"/>
<stop offset="1" stop-color="white"/>
</linearGradient>
<linearGradient id="paint23_linear_498_6490" x1="19.45" y1="42.0273" x2="21.4265" y2="42.0273" gradientUnits="userSpaceOnUse">
<stop stop-color="white"/>
<stop offset="1" stop-color="white"/>
</linearGradient>
<linearGradient id="paint24_linear_498_6490" x1="17.9686" y1="32.3388" x2="19.9438" y2="32.3388" gradientUnits="userSpaceOnUse">
<stop stop-color="white"/>
<stop offset="1" stop-color="white"/>
</linearGradient>
<linearGradient id="paint25_linear_498_6490" x1="14.3962" y1="37.2148" x2="16.3728" y2="37.2148" gradientUnits="userSpaceOnUse">
<stop stop-color="white"/>
<stop offset="1" stop-color="white"/>
</linearGradient>
<linearGradient id="paint26_linear_498_6490" x1="15.0527" y1="23.6396" x2="17.0293" y2="23.6396" gradientUnits="userSpaceOnUse">
<stop stop-color="white"/>
<stop offset="1" stop-color="white"/>
</linearGradient>
</defs>
</svg>
